<svg xmlns="http://www.w3.org/2000/svg" xmlns:xlink="http://www.w3.org/1999/xlink" width="559" zoomAndPan="magnify" viewBox="0 0 419.25 297.75" height="396" preserveAspectRatio="xMidYMid meet" version="1.0"><defs><clipPath id="001819dfe7"><path d="M 0 0.140625 L 418.5 0.140625 L 418.5 297.359375 L 0 297.359375 Z M 0 0.140625 " clip-rule="nonzero"/></clipPath></defs><g clip-path="url(#001819dfe7)"><path fill="#ffffff" d="M 0 0.140625 L 418.5 0.140625 L 418.5 297.359375 L 0 297.359375 Z M 0 0.140625 " fill-opacity="1" fill-rule="nonzero"/><path fill="#ffffff" d="M 0 0.140625 L 418.5 0.140625 L 418.5 297.359375 L 0 297.359375 Z M 0 0.140625 " fill-opacity="1" fill-rule="nonzero"/></g><path fill="#2d2e82" d="M 298.414062 59.308594 C 281.152344 40.941406 256.527344 30.269531 230.890625 30.269531 C 224.035156 30.269531 217.433594 31.015625 211.089844 32.503906 L 211.089844 32.257812 L 209.058594 32.753906 C 202.203125 31.015625 195.097656 30.269531 187.734375 30.269531 C 162.347656 30.269531 137.472656 40.941406 120.210938 59.308594 C 102.695312 77.921875 94.0625 102.242188 96.09375 127.804688 C 99.902344 173.964844 140.265625 210.449219 187.734375 210.449219 L 230.636719 210.449219 C 253.734375 210.449219 276.074219 202.011719 293.082031 186.625 C 310.089844 171.238281 320.753906 150.390625 322.527344 127.804688 C 324.558594 102.242188 316.183594 77.921875 298.414062 59.308594 Z M 209.3125 45.410156 C 243.582031 54.839844 267.441406 85.367188 267.441406 120.359375 C 267.441406 155.105469 243.582031 185.878906 209.3125 195.0625 C 175.042969 185.878906 151.179688 155.105469 151.179688 120.359375 C 151.179688 85.367188 175.042969 54.839844 209.3125 45.410156 Z M 182.65625 43.425781 C 181.894531 43.921875 181.132812 44.167969 180.371094 44.664062 C 179.609375 45.160156 178.851562 45.660156 178.089844 46.15625 L 176.3125 47.644531 C 176.058594 47.644531 175.804688 47.890625 175.804688 48.140625 C 175.042969 48.636719 174.28125 49.382812 173.519531 49.878906 C 171.996094 51.117188 170.21875 52.359375 168.441406 54.097656 C 167.933594 54.59375 167.171875 55.335938 166.664062 55.832031 C 165.648438 56.828125 164.632812 57.820312 163.617188 59.058594 L 161.839844 60.550781 C 161.589844 60.796875 161.335938 61.046875 161.082031 61.542969 C 160.828125 61.789062 160.320312 62.285156 160.066406 62.78125 L 159.558594 63.277344 C 158.289062 65.015625 156.765625 66.753906 155.242188 68.738281 C 153.972656 70.476562 152.703125 72.460938 151.433594 74.449219 C 150.671875 75.441406 150.164062 76.679688 149.65625 77.671875 C 149.148438 78.667969 148.386719 79.90625 147.878906 80.898438 C 147.371094 81.894531 146.863281 83.132812 146.355469 84.375 C 145.847656 85.367188 145.339844 86.359375 145.085938 87.351562 C 144.328125 89.339844 143.566406 91.074219 143.058594 92.8125 C 142.550781 94.054688 142.296875 95.046875 142.042969 96.285156 C 141.789062 97.03125 141.535156 97.777344 141.535156 98.273438 C 141.28125 99.511719 141.027344 100.753906 140.773438 101.746094 L 140.773438 101.996094 C 140.519531 102.988281 140.519531 103.730469 140.265625 104.726562 C 140.011719 105.46875 140.011719 106.214844 140.011719 106.957031 C 140.011719 107.207031 140.011719 107.453125 140.011719 107.703125 C 139.757812 108.449219 139.757812 109.191406 139.757812 109.9375 C 139.757812 110.679688 139.503906 111.675781 139.503906 112.667969 C 139.503906 112.914062 139.503906 113.164062 139.503906 113.164062 C 139.503906 114.402344 139.25 115.644531 139.25 116.886719 C 139.25 118.125 139.25 119.367188 139.25 120.609375 C 139.25 121.847656 139.25 123.089844 139.25 124.332031 C 139.25 125.570312 139.503906 126.8125 139.503906 127.804688 C 139.503906 128.054688 139.503906 128.300781 139.503906 128.796875 C 139.503906 129.542969 139.757812 130.535156 139.757812 131.28125 C 139.757812 132.273438 140.011719 133.015625 140.011719 133.761719 C 140.011719 134.753906 140.265625 135.5 140.519531 136.242188 C 140.519531 136.738281 140.773438 137.484375 140.773438 137.980469 L 141.027344 138.972656 L 143.566406 138.476562 L 141.28125 139.222656 C 141.535156 140.460938 141.789062 141.457031 142.042969 142.695312 C 142.296875 143.191406 142.296875 143.9375 142.550781 144.433594 C 143.058594 145.921875 143.566406 147.660156 144.070312 149.148438 C 144.578125 150.636719 145.085938 152.128906 145.847656 153.617188 C 146.101562 154.359375 146.355469 154.855469 146.609375 155.601562 L 147.371094 157.089844 C 147.625 157.835938 148.132812 158.828125 148.640625 159.574219 L 148.894531 160.070312 C 149.402344 161.0625 149.910156 162.300781 150.671875 163.296875 C 151.179688 164.289062 151.941406 165.527344 152.449219 166.519531 C 154.226562 169.746094 156.511719 172.726562 158.796875 175.457031 C 159.304688 176.199219 160.066406 176.945312 160.574219 177.691406 C 161.082031 178.1875 161.589844 178.683594 162.097656 179.425781 C 162.347656 179.675781 162.601562 180.171875 162.855469 180.417969 C 163.363281 180.914062 163.871094 181.414062 164.378906 182.15625 C 164.886719 182.652344 165.648438 183.398438 166.15625 183.894531 C 166.917969 184.636719 167.679688 185.382812 168.441406 186.128906 C 170.980469 188.609375 173.773438 190.84375 176.820312 193.078125 C 177.582031 193.820312 178.597656 194.316406 179.359375 194.8125 C 180.117188 195.308594 181.132812 196.054688 181.894531 196.550781 L 182.148438 196.800781 C 182.910156 197.296875 183.417969 197.542969 184.179688 198.039062 L 184.433594 198.289062 C 144.832031 196.304688 112.085938 166.023438 109.042969 127.0625 C 106.757812 104.726562 114.117188 83.628906 129.347656 67.5 C 143.566406 52.605469 163.109375 43.425781 183.925781 42.679688 C 183.671875 42.929688 183.164062 43.175781 182.65625 43.425781 Z M 279.882812 120.359375 C 279.882812 88.097656 262.367188 58.8125 234.441406 42.679688 C 255.257812 43.671875 275.058594 52.605469 289.019531 67.5 C 304.25 83.628906 311.613281 104.726562 309.835938 126.566406 C 306.535156 165.527344 274.042969 195.804688 234.441406 197.792969 C 262.367188 181.910156 279.882812 152.375 279.882812 120.359375 Z M 279.882812 120.359375 " fill-opacity="1" fill-rule="nonzero"/><path fill="#2d2e82" d="M 96.890625 232.835938 C 94.808594 232.835938 93.269531 231.347656 93.269531 229.328125 C 93.269531 227.402344 94.808594 225.824219 96.890625 225.824219 C 98.972656 225.824219 100.511719 227.3125 100.511719 229.328125 C 100.511719 231.347656 98.878906 232.835938 96.890625 232.835938 Z M 96.890625 232.835938 " fill-opacity="1" fill-rule="nonzero"/><path fill="#2d2e82" d="M 93.722656 240.550781 C 93.722656 239.9375 93.8125 239.761719 94.445312 239.585938 C 95.171875 239.496094 95.984375 239.410156 96.800781 239.410156 C 97.613281 239.410156 98.335938 239.410156 99.152344 239.585938 C 99.785156 239.671875 99.875 239.9375 99.875 240.550781 L 99.875 269.5625 C 99.875 270.175781 99.785156 270.351562 99.152344 270.527344 C 98.429688 270.613281 97.613281 270.703125 96.800781 270.703125 C 95.984375 270.703125 95.261719 270.703125 94.445312 270.527344 C 93.8125 270.4375 93.722656 270.175781 93.722656 269.5625 Z M 93.722656 240.550781 " fill-opacity="1" fill-rule="nonzero"/><path fill="#2d2e82" d="M 84.128906 269.5625 L 84.128906 252.121094 C 84.128906 243.089844 79.605469 239.234375 71.914062 239.234375 C 65.761719 239.234375 63.226562 241.425781 61.867188 242.742188 C 61.597656 242.917969 61.507812 242.917969 61.324219 242.917969 L 61.144531 242.917969 C 60.78125 242.917969 60.601562 242.917969 60.601562 242.566406 L 60.328125 240.375 C 60.238281 239.761719 59.96875 239.671875 59.335938 239.585938 C 58.609375 239.496094 57.976562 239.496094 57.253906 239.496094 C 56.527344 239.496094 55.804688 239.496094 55.171875 239.585938 C 54.449219 239.671875 54.355469 239.9375 54.355469 240.550781 L 54.355469 269.476562 C 54.355469 270.089844 54.449219 270.351562 55.082031 270.4375 C 55.894531 270.613281 56.621094 270.613281 57.433594 270.613281 C 58.25 270.613281 59.0625 270.527344 59.785156 270.4375 C 60.421875 270.265625 60.511719 270.089844 60.511719 269.476562 L 60.511719 254.660156 C 60.511719 247.824219 63.589844 243.878906 69.742188 243.878906 C 76.074219 243.878906 77.976562 247.125 77.976562 253.433594 L 77.976562 269.5625 C 77.976562 270.175781 78.066406 270.4375 78.699219 270.527344 C 79.515625 270.703125 80.238281 270.703125 81.054688 270.703125 C 81.867188 270.703125 82.683594 270.613281 83.40625 270.527344 C 84.039062 270.351562 84.128906 270.175781 84.128906 269.5625 Z M 84.128906 269.5625 " fill-opacity="1" fill-rule="nonzero"/><path fill="#2d2e82" d="M 38.613281 255.449219 C 38.613281 262.550781 36.257812 266.230469 29.472656 266.230469 C 23.410156 266.230469 21.507812 263.164062 21.507812 257.117188 L 21.507812 240.550781 C 21.507812 239.9375 21.417969 239.671875 20.785156 239.585938 C 19.96875 239.410156 19.246094 239.410156 18.429688 239.410156 C 17.617188 239.410156 16.800781 239.496094 16.078125 239.585938 C 15.445312 239.761719 15.355469 239.9375 15.355469 240.550781 L 15.355469 258.605469 C 15.355469 267.632812 20.511719 270.964844 27.84375 270.964844 C 33.726562 270.964844 36.441406 268.421875 37.164062 267.722656 C 37.433594 267.460938 37.527344 267.460938 37.886719 267.460938 L 38.070312 267.460938 C 38.429688 267.460938 38.519531 267.546875 38.613281 267.808594 L 38.972656 269.652344 C 39.0625 270.265625 39.246094 270.351562 39.878906 270.4375 C 40.511719 270.613281 41.144531 270.613281 41.960938 270.613281 C 42.699219 270.613281 43.214844 270.542969 43.777344 270.464844 L 43.949219 270.4375 C 44.675781 270.265625 44.765625 270.175781 44.765625 269.476562 L 44.765625 240.550781 C 44.765625 239.9375 44.675781 239.671875 44.042969 239.585938 C 43.226562 239.410156 42.503906 239.410156 41.6875 239.410156 C 40.875 239.410156 40.058594 239.496094 39.335938 239.585938 C 38.703125 239.761719 38.613281 239.9375 38.613281 240.550781 Z M 38.613281 255.449219 " fill-opacity="1" fill-rule="nonzero"/><path fill="#2d2e82" d="M 126.664062 239.585938 L 116.980469 239.585938 C 116.527344 239.585938 116.347656 239.410156 116.347656 239.058594 L 116.347656 231.785156 C 116.347656 231.171875 116.257812 230.90625 115.621094 230.820312 C 114.808594 230.644531 114.082031 230.644531 113.269531 230.644531 C 112.457031 230.644531 111.640625 230.730469 110.917969 230.820312 C 110.28125 230.996094 110.191406 231.171875 110.191406 231.785156 L 110.191406 260.183594 C 110.191406 267.632812 114.535156 270.613281 121.503906 270.613281 C 124.941406 270.613281 126.664062 270.265625 127.660156 270 C 128.203125 269.914062 128.292969 269.738281 128.382812 269.210938 L 128.382812 268.335938 C 128.382812 267.546875 128.292969 266.757812 128.203125 266.144531 C 128.109375 265.707031 127.929688 265.441406 127.570312 265.441406 L 127.296875 265.441406 C 126.574219 265.617188 124.761719 265.96875 122.679688 265.96875 C 118.519531 265.96875 116.257812 265.003906 116.257812 259.570312 L 116.257812 244.933594 C 116.257812 244.582031 116.527344 244.320312 116.980469 244.320312 L 126.664062 244.320312 C 127.207031 244.320312 127.386719 244.230469 127.476562 243.707031 C 127.570312 243.265625 127.570312 242.566406 127.570312 241.953125 C 127.570312 241.339844 127.570312 240.726562 127.476562 240.199219 C 127.386719 239.761719 127.207031 239.585938 126.664062 239.585938 Z M 126.664062 239.585938 " fill-opacity="1" fill-rule="nonzero"/><path fill="#2d2e82" d="M 138.519531 257.730469 C 138.96875 264.304688 144.308594 266.230469 150.734375 266.230469 C 155.757812 266.230469 160.160156 264.679688 161.207031 264.3125 L 161.230469 264.304688 C 161.339844 264.304688 161.414062 264.273438 161.476562 264.25 C 161.519531 264.230469 161.554688 264.214844 161.59375 264.214844 C 161.957031 264.214844 162.136719 264.390625 162.226562 264.828125 C 162.40625 265.617188 162.5 266.671875 162.5 267.632812 C 162.5 268.597656 162.5 268.773438 161.683594 269.125 C 160.597656 269.652344 156.527344 270.964844 150.554688 270.964844 C 139.695312 270.964844 132.003906 267.109375 132.003906 255.011719 C 132.003906 245.28125 136.890625 239.058594 148.382812 239.058594 C 159.0625 239.058594 164.671875 244.054688 164.671875 253.785156 C 164.671875 254.835938 164.582031 255.714844 164.492188 256.238281 C 164.398438 256.851562 164.21875 256.941406 163.585938 256.941406 L 139.242188 256.941406 C 138.699219 257.027344 138.519531 257.203125 138.519531 257.730469 Z M 138.425781 252.207031 C 138.425781 252.558594 138.609375 252.734375 139.152344 252.734375 L 157.703125 252.734375 C 158.246094 252.734375 158.425781 252.558594 158.425781 252.03125 C 158.425781 246.421875 154.988281 243.441406 148.652344 243.441406 C 142.320312 243.441406 138.878906 246.246094 138.519531 252.03125 L 138.519531 252.207031 Z M 138.425781 252.207031 " fill-opacity="1" fill-rule="evenodd"/><path fill="#2d2e82" d="M 196.433594 267.722656 L 196.707031 267.722656 C 196.976562 267.722656 197.160156 267.808594 197.25 267.984375 L 197.609375 269.652344 C 197.792969 270.265625 197.882812 270.351562 198.515625 270.4375 C 199.148438 270.613281 199.875 270.613281 200.597656 270.613281 C 201.335938 270.613281 201.855469 270.542969 202.417969 270.464844 L 202.589844 270.4375 C 203.3125 270.265625 203.402344 270.175781 203.402344 269.476562 L 203.402344 227.136719 C 203.402344 226.523438 203.3125 226.261719 202.679688 226.175781 C 201.863281 226 201.140625 226 200.328125 226 C 199.511719 226 198.695312 226.085938 197.972656 226.175781 C 197.339844 226.351562 197.25 226.523438 197.25 227.136719 L 197.25 241.601562 C 197.25 241.953125 197.160156 242.039062 196.796875 242.039062 L 196.527344 242.039062 C 196.253906 242.039062 196.164062 242.039062 195.890625 241.863281 C 195.785156 241.796875 195.667969 241.714844 195.535156 241.621094 C 194.308594 240.773438 191.835938 239.058594 186.117188 239.058594 C 177.792969 239.058594 170.914062 243.617188 170.914062 255.273438 C 170.914062 267.019531 177.882812 270.964844 186.390625 270.964844 C 192.316406 270.964844 194.738281 268.832031 195.664062 268.015625 L 195.738281 267.949219 C 195.761719 267.933594 195.78125 267.914062 195.800781 267.898438 C 195.984375 267.722656 196.074219 267.722656 196.433594 267.722656 Z M 187.476562 266.496094 C 179.785156 266.496094 177.070312 262.113281 177.070312 255.101562 C 177.070312 248.085938 179.695312 243.617188 187.476562 243.707031 C 195.167969 243.707031 197.882812 248.085938 197.882812 255.101562 C 197.882812 262.113281 195.167969 266.496094 187.476562 266.496094 Z M 187.476562 266.496094 " fill-opacity="1" fill-rule="evenodd"/><path fill="#2d2e82" d="M 226.480469 255.101562 C 226.480469 262.726562 230.371094 266.40625 237.699219 266.40625 C 242.703125 266.40625 246.199219 265.175781 247.660156 264.660156 C 247.757812 264.625 247.847656 264.59375 247.925781 264.566406 C 248.03125 264.566406 248.109375 264.535156 248.171875 264.511719 C 248.214844 264.492188 248.25 264.480469 248.289062 264.480469 C 248.652344 264.480469 248.832031 264.652344 248.921875 265.09375 C 249.101562 265.882812 249.195312 266.84375 249.195312 267.722656 C 249.195312 268.6875 249.195312 268.863281 248.378906 269.210938 C 247.113281 269.738281 242.769531 271.054688 237.699219 271.054688 C 226.933594 271.054688 220.234375 266.230469 220.234375 255.101562 C 220.234375 243.96875 226.933594 239.148438 237.699219 239.148438 C 242.769531 239.148438 247.113281 240.375 248.378906 240.988281 C 249.195312 241.339844 249.195312 241.515625 249.195312 242.476562 C 249.195312 243.355469 249.101562 244.320312 248.921875 245.109375 C 248.832031 245.546875 248.652344 245.722656 248.289062 245.722656 C 248.199219 245.722656 248.019531 245.722656 247.925781 245.632812 L 247.832031 245.601562 L 247.722656 245.566406 C 247.636719 245.539062 247.546875 245.507812 247.449219 245.472656 C 245.835938 244.925781 242.5 243.792969 237.699219 243.792969 C 230.371094 243.792969 226.480469 247.386719 226.480469 255.101562 Z M 226.480469 255.101562 " fill-opacity="1" fill-rule="nonzero"/><path fill="#2d2e82" d="M 271.726562 239.148438 C 260.503906 239.148438 254.984375 244.933594 254.984375 255.101562 C 254.984375 265.269531 260.597656 270.964844 271.726562 271.054688 C 282.949219 271.054688 288.46875 265.269531 288.46875 255.101562 C 288.46875 244.933594 282.949219 239.148438 271.726562 239.148438 Z M 271.726562 243.707031 C 279.601562 243.707031 282.3125 248.175781 282.3125 255.101562 C 282.3125 262.023438 279.601562 266.496094 271.726562 266.496094 C 263.855469 266.496094 261.136719 262.023438 261.136719 255.101562 C 261.136719 248.175781 263.855469 243.707031 271.726562 243.707031 Z M 271.726562 243.707031 " fill-opacity="1" fill-rule="evenodd"/><path fill="#2d2e82" d="M 320.140625 267.722656 L 319.871094 267.722656 C 319.507812 267.722656 319.417969 267.722656 319.234375 267.898438 L 319.179688 267.949219 L 319.101562 268.015625 C 318.171875 268.832031 315.75 270.964844 309.824219 270.964844 C 301.320312 270.964844 294.351562 267.019531 294.351562 255.273438 C 294.351562 243.617188 301.226562 239.058594 309.554688 239.058594 C 315.273438 239.058594 317.746094 240.773438 318.972656 241.621094 C 319.101562 241.714844 319.222656 241.796875 319.328125 241.863281 C 319.597656 242.039062 319.6875 242.039062 319.960938 242.039062 L 320.230469 242.039062 C 320.59375 242.039062 320.683594 241.953125 320.683594 241.601562 L 320.683594 227.136719 C 320.683594 226.523438 320.773438 226.351562 321.410156 226.175781 C 322.132812 226.085938 322.945312 226 323.761719 226 C 324.574219 226 325.300781 226 326.113281 226.175781 C 326.75 226.261719 326.839844 226.523438 326.839844 227.136719 L 326.839844 269.476562 C 326.839844 270.175781 326.75 270.265625 326.023438 270.4375 L 325.851562 270.464844 C 325.289062 270.542969 324.773438 270.613281 324.03125 270.613281 C 323.308594 270.613281 322.585938 270.613281 321.953125 270.4375 C 321.320312 270.351562 321.226562 270.265625 321.046875 269.652344 L 320.683594 267.984375 C 320.59375 267.808594 320.503906 267.722656 320.140625 267.722656 Z M 300.503906 255.101562 C 300.503906 262.113281 303.21875 266.496094 310.910156 266.496094 C 318.601562 266.496094 321.320312 262.113281 321.320312 255.101562 C 321.320312 248.085938 318.601562 243.707031 310.910156 243.707031 C 303.21875 243.617188 300.503906 248.085938 300.503906 255.101562 Z M 300.503906 255.101562 " fill-opacity="1" fill-rule="evenodd"/><path fill="#2d2e82" d="M 353.261719 266.230469 C 346.835938 266.230469 341.496094 264.304688 341.046875 257.730469 C 341.046875 257.203125 341.226562 257.027344 341.769531 256.941406 L 366.113281 256.941406 C 366.746094 256.941406 366.925781 256.851562 367.015625 256.238281 C 367.109375 255.714844 367.199219 254.835938 367.199219 253.785156 C 367.199219 244.054688 361.589844 239.058594 350.910156 239.058594 C 339.417969 239.058594 334.53125 245.28125 334.53125 255.011719 C 334.53125 267.109375 342.222656 270.964844 353.082031 270.964844 C 359.054688 270.964844 363.128906 269.652344 364.214844 269.125 C 365.027344 268.773438 365.027344 268.597656 365.027344 267.632812 C 365.027344 266.671875 364.9375 265.617188 364.757812 264.828125 C 364.664062 264.390625 364.484375 264.214844 364.121094 264.214844 C 364.085938 264.214844 364.046875 264.230469 364.003906 264.25 C 363.941406 264.273438 363.867188 264.304688 363.761719 264.304688 L 363.734375 264.3125 C 362.6875 264.679688 358.285156 266.230469 353.261719 266.230469 Z M 341.679688 252.734375 C 341.136719 252.734375 340.953125 252.558594 340.953125 252.207031 L 341.046875 252.207031 L 341.046875 252.03125 C 341.40625 246.246094 344.847656 243.441406 351.179688 243.441406 C 357.515625 243.441406 360.953125 246.421875 360.953125 252.03125 C 360.953125 252.558594 360.773438 252.734375 360.230469 252.734375 Z M 341.679688 252.734375 " fill-opacity="1" fill-rule="evenodd"/><path fill="#2d2e82" d="M 388.554688 243.53125 C 384.484375 243.53125 380.410156 244.230469 380.410156 247.5625 C 380.410156 250.542969 383.304688 250.980469 389.277344 251.855469 C 397.695312 253.171875 403.035156 254.488281 403.035156 261.585938 C 403.035156 269.386719 394.980469 270.964844 387.652344 270.964844 C 382.222656 270.964844 376.699219 270 374.890625 269.386719 C 374.257812 269.210938 374.167969 269.035156 374.078125 268.421875 C 373.988281 267.460938 373.988281 266.054688 374.347656 265.003906 C 374.53125 264.390625 374.800781 264.390625 375.433594 264.480469 C 377.242188 265.003906 382.222656 266.320312 387.921875 266.320312 C 392.355469 266.320312 396.882812 265.792969 396.882812 261.9375 C 396.882812 259.21875 395.34375 258.34375 388.644531 257.292969 C 380.59375 256.152344 374.347656 254.925781 374.347656 247.914062 C 374.347656 240.285156 382.222656 238.972656 389.1875 238.972656 C 394.710938 238.972656 399.414062 240.199219 400.410156 240.550781 C 400.953125 240.726562 401.136719 240.898438 401.136719 241.425781 L 401.136719 242.214844 C 401.136719 243.003906 401.042969 243.96875 400.863281 244.582031 C 400.773438 244.933594 400.59375 245.109375 400.320312 245.109375 C 400.230469 245.109375 400.050781 245.109375 399.867188 245.019531 C 399.59375 245.019531 398.871094 244.882812 397.867188 244.6875 C 395.578125 244.25 391.828125 243.53125 388.554688 243.53125 Z M 388.554688 243.53125 " fill-opacity="1" fill-rule="nonzero"/></svg>